<svg xmlns="http://www.w3.org/2000/svg" xmlns:xlink="http://www.w3.org/1999/xlink" viewBox="0 0 378.29 709.74"><defs><style>.cls-1{isolation:isolate;}.cls-2{fill:#6d6e71;}.cls-3,.cls-5,.cls-6{mix-blend-mode:multiply;opacity:0.5;}.cls-4{fill:url(#linear-gradient);}.cls-5{fill:url(#linear-gradient-2);}.cls-6{fill:url(#linear-gradient-3);}</style><linearGradient id="linear-gradient" x1="122.67" y1="53.53" x2="283.42" y2="53.53" gradientUnits="userSpaceOnUse"><stop offset="0" stop-color="#818285"/><stop offset="0.5" stop-color="#fff"/><stop offset="0.58" stop-color="#fbfbfb"/><stop offset="0.66" stop-color="#efefef"/><stop offset="0.75" stop-color="#dadbdb"/><stop offset="0.83" stop-color="#bebec0"/><stop offset="0.92" stop-color="#999a9c"/><stop offset="1" stop-color="#6d6e71"/></linearGradient><linearGradient id="linear-gradient-2" x1="378.59" y1="608.5" x2="241.08" y2="389.36" gradientUnits="userSpaceOnUse"><stop offset="0" stop-color="#fff"/><stop offset="0.36" stop-color="#fdfdfd"/><stop offset="0.49" stop-color="#f6f6f7"/><stop offset="0.58" stop-color="#ebebeb"/><stop offset="0.65" stop-color="#dadadb"/><stop offset="0.68" stop-color="#d1d1d2"/><stop offset="0.73" stop-color="#c9c9ca"/><stop offset="0.82" stop-color="#b3b3b5"/><stop offset="0.92" stop-color="#8f8f92"/><stop offset="1" stop-color="#6d6e71"/></linearGradient><linearGradient id="linear-gradient-3" x1="95.83" y1="78.68" x2="199.88" y2="278.5" gradientUnits="userSpaceOnUse"><stop offset="0" stop-color="#fff"/><stop offset="0.15" stop-color="#fbfbfb"/><stop offset="0.3" stop-color="#efefef"/><stop offset="0.46" stop-color="#dadbdb"/><stop offset="0.61" stop-color="#bebec0"/><stop offset="0.77" stop-color="#999a9c"/><stop offset="0.92" stop-color="#6d6e71"/></linearGradient></defs><g class="cls-1"><g id="Layer_2" data-name="Layer 2"><g id="ribbon"><path class="cls-2" d="M135.85,26.77s-20.35,39.48-10.48,80.3c0,0,37.28-26.71,80.65-25.73S264,92.08,277.41,102.53c0,0,12.75-47.89,1.11-73.6C270,10.1,243.87.55,207.59,0l-4,0c-34.07,0-57,6.63-67.74,26.77"/><g class="cls-3"><path class="cls-4" d="M135.85,26.77s-20.35,39.48-10.48,80.3c0,0,37.28-26.71,80.65-25.73S264,92.08,277.41,102.53c0,0,12.75-47.89,1.11-73.6C270,10.1,243.87.55,207.59,0l-4,0c-34.07,0-57,6.63-67.74,26.77"/></g><path class="cls-2" d="M378.12,534.44C363.91,508.1,225.8,252,210.73,220.29,194.83,186.84,115.52,65,135.85,26.77c0,0-41,77-49.52,103.18s25.16,112.28,63.8,182.51c38.13,69.28,95.06,182.62,174.2,314.36Z"/><path class="cls-2" d="M276.66,25.42C298.46,66,207,205.9,188.88,243.89,172,279.19,21.3,558.47,0,597.91L52.76,709.74C142.55,560,207.69,430.79,251.05,352c43.79-79.57,74.83-176.56,74.45-208C325.08,108.28,277.13,26.3,276.66,25.42Z"/><path class="cls-5" d="M378.29,534.16c-8.37-15.52-67-124.22-112.87-210.22-4.76,9.33-9.63,18.55-14.57,27.52-11.67,21.22-24.94,46.12-39.83,74.06,31.15,58.06,68.78,126.59,113.49,201Z"/><path class="cls-6" d="M151.59,314.53c18.56-35,32.59-61.76,37.1-71.17,3.56-7.46,9.87-18.77,17.54-32.46C183.65,168.69,117,61.56,135.85,26.18c0,0-41,77-49.52,103.18s25.16,112.28,63.8,182.5Z"/></g></g></g></svg>